<?xml version="1.0" standalone="no"?>
<!DOCTYPE svg PUBLIC "-//W3C//DTD SVG 20010904//EN"
 "http://www.w3.org/TR/2001/REC-SVG-20010904/DTD/svg10.dtd">
<svg version="1.0" xmlns="http://www.w3.org/2000/svg"
 width="512.000000pt" height="512.000000pt" viewBox="0 0 512.000000 512.000000"
 preserveAspectRatio="xMidYMid meet">

<g transform="translate(0.000000,512.000000) scale(0.100000,-0.100000)"
fill="#000000" stroke="none">
<path d="M563 4860 c-25 -11 -51 -33 -63 -52 -20 -33 -20 -47 -20 -1380 l0
-1348 -95 0 c-88 0 -98 -2 -120 -25 l-25 -24 0 -825 c0 -453 3 -832 6 -841 17
-43 37 -45 553 -45 338 0 498 3 514 11 29 13 47 48 47 88 l0 29 87 -32 c82
-29 97 -31 218 -31 117 1 137 4 205 29 188 70 278 72 450 10 100 -36 111 -37
235 -38 128 -1 132 0 240 39 101 37 118 40 210 40 91 0 110 -3 210 -40 107
-38 114 -39 240 -39 127 0 133 1 240 39 101 37 118 40 210 40 90 0 111 -4 210
-39 179 -64 312 -61 504 8 41 15 106 30 144 33 117 10 111 -4 115 304 2 179
-1 271 -8 290 -27 63 -141 64 -312 1 -95 -34 -111 -37 -208 -37 -97 1 -113 4
-210 40 -102 37 -109 38 -235 39 -115 0 -139 -3 -205 -26 -41 -14 -76 -25 -77
-24 -2 1 83 278 188 616 122 392 188 621 185 636 -9 34 -30 51 -96 75 l-59 21
-3 347 c-3 335 -4 347 -25 387 -28 53 -71 96 -120 120 -33 17 -66 19 -265 22
l-228 3 0 166 c0 194 -12 234 -83 281 -41 27 -41 27 -237 27 -196 0 -196 0
-237 -27 -71 -47 -83 -87 -83 -281 l0 -167 -214 0 c-135 0 -225 -4 -247 -12
-58 -19 -115 -67 -145 -121 l-29 -52 -3 -346 -3 -347 -60 -22 c-68 -24 -99
-50 -99 -81 0 -12 81 -281 180 -600 99 -318 180 -580 180 -582 0 -2 -33 -7
-72 -11 -43 -4 -116 -22 -178 -44 -93 -33 -116 -37 -202 -37 -83 0 -110 5
-202 35 l-106 35 0 93 0 92 45 0 c51 0 99 20 109 45 3 9 6 100 6 201 0 183 0
185 -25 209 -20 21 -34 25 -80 25 l-55 0 0 135 c0 131 -1 137 -25 160 -22 23
-32 25 -120 25 l-95 0 0 1000 0 1000 1600 0 1600 0 0 -240 0 -240 -55 0 c-46
0 -60 -4 -80 -25 -24 -23 -25 -29 -25 -165 0 -102 4 -149 14 -169 20 -37 99
-109 130 -117 25 -6 26 -9 26 -76 0 -98 34 -159 112 -199 48 -25 68 -55 68
-102 0 -31 -7 -46 -34 -73 -47 -47 -89 -46 -146 1 -51 42 -90 46 -125 10 -40
-39 -34 -80 20 -131 95 -92 246 -97 348 -13 89 73 122 203 77 307 -23 54 -91
125 -135 142 -23 9 -25 15 -25 69 0 50 3 61 19 66 10 3 44 32 75 65 l56 59 0
151 c0 147 -1 152 -25 175 -20 21 -34 25 -80 25 l-55 0 0 239 0 240 149 3
c163 3 178 8 225 72 19 25 21 44 24 231 4 231 -1 254 -64 301 l-37 29 -1829 3
-1828 2 0 28 c0 42 -36 91 -83 112 -37 17 -66 20 -237 20 -171 0 -200 -3 -237
-20z m397 -1460 l0 -1320 -160 0 -160 0 0 1320 0 1320 160 0 160 0 0 -1320z
m3760 1000 l0 -160 -1800 0 -1800 0 0 160 0 160 1800 0 1800 0 0 -160z m-1682
-962 l3 -158 -161 0 -160 0 0 153 c0 85 3 157 7 161 4 3 75 5 157 4 l151 -3 3
-157z m1442 -60 c0 -78 -16 -98 -78 -98 -66 0 -82 19 -82 97 l0 63 80 0 80 0
0 -62z m-855 -270 c52 -24 55 -42 55 -358 0 -159 -3 -290 -7 -290 -5 0 -185
59 -401 132 l-393 133 -392 -133 c-216 -73 -395 -132 -399 -132 -5 0 -8 134
-8 298 0 320 2 331 54 352 35 14 1460 12 1491 -2z m-269 -713 c252 -86 459
-157 460 -158 2 -2 -6 -33 -17 -69 l-21 -67 -449 152 -450 152 -449 -152 -449
-152 -21 66 c-11 36 -19 68 -17 69 9 9 915 313 933 313 12 1 228 -69 480 -154z
m-42 -306 c274 -93 416 -146 413 -154 -3 -6 -67 -211 -142 -456 -76 -244 -142
-448 -147 -454 -11 -12 -129 14 -228 51 -67 25 -88 28 -200 28 -121 1 -129 -1
-235 -39 -104 -38 -116 -40 -220 -40 -98 1 -118 4 -184 30 l-74 30 -133 429
c-74 237 -132 431 -130 433 9 9 824 282 842 282 12 1 209 -63 438 -140z
m-2114 -249 l0 -80 -400 0 -400 0 0 80 0 80 400 0 400 0 0 -80z m160 -320 l0
-80 -480 0 -480 0 0 80 0 80 480 0 480 0 0 -80z m-160 -640 l0 -400 -400 0
-400 0 0 400 0 400 400 0 400 0 0 -400z m1117 24 c105 -38 112 -39 243 -39
132 0 137 1 245 40 100 36 119 40 205 39 85 0 107 -4 205 -40 108 -38 112 -39
245 -38 132 0 138 1 240 39 95 36 114 40 200 40 86 0 106 -4 205 -40 108 -39
113 -40 245 -40 131 0 138 1 239 38 58 20 110 37 118 37 10 0 13 -34 13 -160
l0 -160 -25 0 c-13 0 -78 -18 -144 -40 -167 -56 -236 -56 -404 2 -117 40 -127
42 -242 41 -123 0 -159 -7 -280 -54 -50 -20 -78 -24 -170 -23 -102 0 -118 3
-220 39 -104 37 -116 39 -230 39 -115 0 -125 -2 -242 -42 -170 -58 -236 -58
-406 0 -118 40 -126 42 -247 42 -120 -1 -129 -2 -247 -42 -165 -57 -238 -58
-394 -5 l-109 37 0 157 0 158 58 -24 c143 -58 325 -60 472 -5 116 43 152 50
242 46 57 -3 104 -14 185 -42z"/>
<path d="M2265 2935 c-16 -15 -25 -36 -25 -55 0 -19 9 -40 25 -55 23 -24 31
-25 135 -25 104 0 112 1 135 25 16 15 25 36 25 55 0 19 -9 40 -25 55 -23 24
-31 25 -135 25 -104 0 -112 -1 -135 -25z"/>
<path d="M2745 2935 c-16 -15 -25 -36 -25 -55 0 -19 9 -40 25 -55 23 -24 31
-25 135 -25 104 0 112 1 135 25 16 15 25 36 25 55 0 19 -9 40 -25 55 -23 24
-31 25 -135 25 -104 0 -112 -1 -135 -25z"/>
<path d="M3225 2935 c-16 -15 -25 -36 -25 -55 0 -19 9 -40 25 -55 23 -24 31
-25 135 -25 104 0 112 1 135 25 16 15 25 36 25 55 0 19 -9 40 -25 55 -23 24
-31 25 -135 25 -104 0 -112 -1 -135 -25z"/>
</g>
</svg>
